<?xml version="1.0" encoding="utf-8"?>
<!-- Generator: Adobe Illustrator 23.0.5, SVG Export Plug-In . SVG Version: 6.00 Build 0)  -->
<svg version="1.1" id="Layer_1" xmlns="http://www.w3.org/2000/svg" xmlns:xlink="http://www.w3.org/1999/xlink" x="0px" y="0px"
	 viewBox="0 0 1024 219.77" style="enable-background:new 0 0 1024 219.77;" xml:space="preserve">
<style type="text/css">
	.st0{fill:#0978BA;}
	.st1{fill:#7BACD6;}
	.st2{fill:#0E56A7;}
</style>
<g>
	<g>
		<path class="st0" d="M167.03,188.12c-9.35,1.95-19.19,3-29.36,3c-62.15,0-112.54-39.01-112.54-87.11
			c0-47.5,49.17-86.15,110.28-87.07c-46.94,1.12-84.63,37.3-84.63,81.77c0,19.21,7.03,36.89,18.82,50.85
			c0.03,0.03,0.06,0.07,0.07,0.1c12.78,16.12,33.22,27.48,56.86,30.19c0.73,0.09,1.48,0.17,2.23,0.24c1.46,0.14,2.94,0.24,4.42,0.32
			c1.48,0.07,2.97,0.1,4.46,0.1h0.01c0.75,0,1.49-0.01,2.23-0.03c0.63-0.01,1.25-0.03,1.87-0.06c0.37-0.01,0.73-0.04,1.09-0.06
			c0.82-0.04,1.62-0.1,2.43-0.16c6.55-0.52,12.88-1.69,18.89-3.46c0.57-0.16,1.15-0.24,1.72-0.24c1.01,0,2,0.24,2.89,0.75
			C173.52,179.94,172.36,187,167.03,188.12z"/>
		<path class="st1" d="M222.91,160.85l11.46,42.01l-48.72-27.61c-3.06-1.72-3.09-6.07-0.1-7.92c7.85-4.82,14.67-10.82,20.1-17.67
			c11.83-13.97,18.89-31.68,18.89-50.94c0-44.47-37.68-80.65-84.63-81.77c61.11,0.9,110.28,39.55,110.28,87.07
			C250.18,125.73,239.91,145.59,222.91,160.85z"/>
		<path class="st2" d="M205.64,149.65c8.83-11.17,14-24.62,14-39.11c0-38.65-36.71-69.97-81.96-69.97
			c-45.28,0-81.99,31.32-81.99,69.97c0,14.44,5.13,27.86,13.93,39.02c-11.79-13.95-18.82-31.64-18.82-50.85
			c0-44.47,37.68-80.65,84.63-81.77c0.75-0.01,1.49-0.03,2.24-0.03s1.49,0.01,2.24,0.03c46.94,1.12,84.63,37.3,84.63,81.77
			C224.53,117.97,217.47,135.68,205.64,149.65z"/>
	</g>
	<path class="st2" d="M329.81,180.83c-12.8,0-23.39-1.98-31.77-5.95c-8.39-3.97-14.64-9.6-18.75-16.89
		c-4.12-7.29-6.17-15.9-6.17-25.82V76.81h22.62v54.32c0,9.82,2.95,17.41,8.85,22.77c5.9,5.36,14.31,8.03,25.22,8.03
		s19.32-2.68,25.22-8.03c5.9-5.36,8.85-12.95,8.85-22.77V76.81h22.62v55.36c0,9.92-2.06,18.53-6.18,25.82
		c-4.12,7.29-10.34,12.93-18.67,16.89C353.32,178.84,342.71,180.83,329.81,180.83z"/>
	<path class="st2" d="M475.79,180.83c-13.59,0-25.3-2.06-35.12-6.17c-9.82-4.12-17.39-10.12-22.69-18.01
		c-5.31-7.89-7.96-17.49-7.96-28.8c0-11.31,2.65-20.88,7.96-28.72c5.31-7.84,12.87-13.81,22.69-17.93
		c9.82-4.12,21.53-6.18,35.12-6.18c13.59,0,25.3,2.06,35.12,6.18c9.82,4.12,17.39,10.1,22.69,17.93c5.31,7.84,7.96,17.41,7.96,28.72
		c0,11.31-2.65,20.91-7.96,28.8c-5.31,7.89-12.87,13.89-22.69,18.01C501.09,178.77,489.39,180.83,475.79,180.83z M475.79,161.93
		c6.15,0,11.8-0.69,16.96-2.08c5.16-1.39,9.65-3.42,13.47-6.1c3.82-2.68,6.79-6.05,8.93-10.12c2.13-4.07,3.2-8.78,3.2-14.14v-3.42
		c0-5.36-1.07-10.04-3.2-14.06c-2.13-4.02-5.11-7.37-8.93-10.04c-3.82-2.68-8.31-4.69-13.47-6.03c-5.16-1.34-10.81-2.01-16.96-2.01
		c-6.15,0-11.81,0.67-16.96,2.01c-5.16,1.34-9.65,3.35-13.47,6.03c-3.82,2.68-6.77,6.03-8.85,10.04c-2.08,4.02-3.13,8.71-3.13,14.06
		v3.42c0,5.36,1.04,10.07,3.13,14.14c2.08,4.07,5.03,7.44,8.85,10.12c3.82,2.68,8.31,4.71,13.47,6.1
		C463.99,161.24,469.64,161.93,475.79,161.93z"/>
	<path class="st2" d="M565.97,179.04V76.81h80.95c7.24,0,13.17,1.46,17.78,4.39c4.61,2.93,8.06,6.8,10.34,11.61
		c2.28,4.81,3.42,10.15,3.42,16c0,6.05-1.56,11.73-4.69,17.04c-3.13,5.31-7.96,9.45-14.51,12.43L681,179.04h-25.45l-18.75-36.46
		h-48.21v36.46H565.97z M588.59,123.83h52.09c4.66,0,8.26-1.36,10.79-4.09c2.53-2.73,3.8-6.22,3.8-10.49c0-2.88-0.55-5.33-1.64-7.37
		c-1.09-2.03-2.73-3.57-4.91-4.61c-2.18-1.04-4.86-1.56-8.03-1.56h-52.09V123.83z"/>
	<path class="st1" d="M702.88,179.04V76.81h22.62v102.23H702.88z"/>
	<path class="st2" d="M810.17,180.83c-12.8,0-23.39-1.98-31.77-5.95c-8.39-3.97-14.64-9.6-18.75-16.89
		c-4.12-7.29-6.17-15.9-6.17-25.82V76.81h22.62v54.32c0,9.82,2.95,17.41,8.85,22.77c5.9,5.36,14.31,8.03,25.22,8.03
		c10.91,0,19.32-2.68,25.22-8.03c5.9-5.36,8.85-12.95,8.85-22.77V76.81h22.62v55.36c0,9.92-2.06,18.53-6.17,25.82
		c-4.12,7.29-10.34,12.93-18.68,16.89C833.68,178.84,823.06,180.83,810.17,180.83z"/>
	<path class="st2" d="M944.69,180.83c-7.74,0-14.98-0.47-21.73-1.41c-6.75-0.94-12.65-2.63-17.71-5.06
		c-5.06-2.43-9-5.83-11.83-10.19c-2.83-4.36-4.24-9.97-4.24-16.82c0-0.2,0-0.45,0-0.74c0-0.3,0.05-0.54,0.15-0.74h22.32
		c-0.1,0.4-0.18,0.87-0.22,1.41c-0.05,0.55-0.08,1.17-0.08,1.86c0,3.08,1.34,5.58,4.02,7.52c2.68,1.94,6.5,3.35,11.46,4.24
		c4.96,0.89,10.76,1.34,17.41,1.34c2.88,0,5.78-0.12,8.71-0.37c2.92-0.25,5.73-0.62,8.41-1.12c2.68-0.5,5.08-1.19,7.22-2.08
		c2.13-0.89,3.82-2.01,5.06-3.35c1.24-1.34,1.86-2.9,1.86-4.69c0-2.58-1.17-4.64-3.5-6.18c-2.33-1.54-5.48-2.8-9.45-3.79
		c-3.97-0.99-8.43-1.84-13.39-2.53c-4.96-0.69-10.1-1.46-15.4-2.31c-5.31-0.84-10.44-1.99-15.4-3.42c-4.96-1.44-9.43-3.3-13.39-5.58
		c-3.97-2.28-7.12-5.23-9.45-8.85c-2.33-3.62-3.5-8.06-3.5-13.32c0-4.76,1.14-8.98,3.42-12.65c2.28-3.67,5.66-6.77,10.12-9.3
		s9.94-4.44,16.44-5.73c6.5-1.29,13.96-1.93,22.4-1.93c8.53,0,15.97,0.7,22.32,2.08c6.35,1.39,11.61,3.37,15.77,5.95
		c4.17,2.58,7.26,5.68,9.3,9.3c2.03,3.62,3.05,7.66,3.05,12.13v2.38h-22.03v-1.94c0-2.18-1.19-4.12-3.57-5.8
		c-2.38-1.69-5.61-3.02-9.67-4.02c-4.07-0.99-8.68-1.49-13.84-1.49c-7.14,0-12.95,0.45-17.41,1.34c-4.46,0.89-7.74,2.11-9.82,3.64
		c-2.08,1.54-3.12,3.25-3.12,5.13c0,2.28,1.17,4.12,3.5,5.51c2.33,1.39,5.48,2.51,9.45,3.35c3.97,0.84,8.43,1.61,13.39,2.31
		c4.96,0.69,10.09,1.49,15.4,2.38c5.3,0.89,10.44,2.03,15.4,3.42c4.96,1.39,9.42,3.25,13.39,5.58c3.97,2.33,7.12,5.26,9.45,8.78
		c2.33,3.52,3.5,7.86,3.5,13.02c0,7.94-2.28,14.31-6.85,19.12c-4.57,4.81-10.91,8.29-19.05,10.42
		C964.83,179.76,955.41,180.83,944.69,180.83z"/>
	<circle class="st1" cx="714.03" cy="47.57" r="15.84"/>
</g>
</svg>
